<svg width="393" height="20" viewBox="0 0 393 20" fill="none" xmlns="http://www.w3.org/2000/svg">
<path d="M5 10C9.25556 3.33333 13.5111 3.33333 17.7667 10C22.0222 16.6667 26.2778 16.6667 30.5333 10C34.7889 3.33333 39.0444 3.33333 43.3 10C47.5556 16.6667 51.8111 16.6667 56.0667 10C60.3222 3.33333 64.5778 3.33333 68.8333 10C73.0889 16.6667 77.3444 16.6667 81.6 10C85.8556 3.33333 90.1111 3.33333 94.3667 10C98.6222 16.6667 102.878 16.6667 107.133 10C111.389 3.33333 115.644 3.33333 119.9 10C124.156 16.6667 128.411 16.6667 132.667 10C136.922 3.33333 141.178 3.33333 145.433 10C149.689 16.6667 153.944 16.6667 158.2 10C162.456 3.33333 166.711 3.33333 170.967 10C175.222 16.6667 179.478 16.6667 183.733 10C187.989 3.33333 192.244 3.33333 196.5 10C200.756 16.6667 205.011 16.6667 209.267 10C213.522 3.33333 217.778 3.33333 222.033 10C226.289 16.6667 230.544 16.6667 234.8 10C239.056 3.33333 243.311 3.33333 247.567 10C251.822 16.6667 256.078 16.6667 260.333 10C264.589 3.33333 268.844 3.33333 273.1 10C277.356 16.6667 281.611 16.6667 285.867 10C290.122 3.33333 294.378 3.33333 298.633 10C302.889 16.6667 307.144 16.6667 311.4 10C315.656 3.33333 319.911 3.33333 324.167 10C328.422 16.6667 332.678 16.6667 336.933 10C341.189 3.33333 345.444 3.33333 349.7 10C353.956 16.6667 358.211 16.6667 362.467 10C366.722 3.33333 370.978 3.33333 375.233 10C379.489 16.6667 383.744 16.6667 388 10" stroke="#4A0AD2" stroke-width="10"/>
</svg>
