<svg width="113" height="99" viewBox="0 0 113 99" fill="none" xmlns="http://www.w3.org/2000/svg">
<path d="M111.082 96.0205C110.33 96.894 109.388 97.5962 108.325 98.0776C107.261 98.559 106.102 98.8078 104.928 98.8063C104.006 98.8057 103.09 98.6534 102.22 98.3559L61.8905 85.1365C61.4905 85.0054 61.143 84.7558 60.8969 84.4229C60.6507 84.0901 60.5184 83.6906 60.5184 83.2809V47.8872C60.5196 47.3503 60.4071 46.8188 60.1878 46.3259C59.9685 45.8329 59.6471 45.389 59.2436 45.0217C58.8401 44.6544 58.363 44.3715 57.8421 44.1906C57.3213 44.0098 56.7676 43.9348 56.2156 43.9704C55.1779 44.0592 54.2131 44.5252 53.5144 45.2752C52.8157 46.0251 52.4346 47.0035 52.4475 48.0145V83.2662C52.4476 83.6759 52.3152 84.0754 52.0691 84.4083C51.8229 84.7411 51.4754 84.9907 51.0755 85.1218L10.7463 98.3412C9.1991 98.8688 7.523 98.9265 5.9412 98.5065C4.3594 98.0865 2.94695 97.2087 1.89193 95.9901C0.836912 94.7715 0.189389 93.2698 0.0355819 91.6851C-0.118225 90.1004 0.228984 88.5078 1.03097 87.1194L49.4411 4.86552C50.1432 3.65408 51.1648 2.64578 52.401 1.94408C53.6371 1.24238 55.0434 0.872559 56.4754 0.872559C57.9075 0.872559 59.3137 1.24238 60.5499 1.94408C61.786 2.64578 62.8076 3.65408 63.5097 4.86552L111.94 87.1047C112.761 88.4956 113.119 90.0985 112.965 91.6944C112.812 93.2902 112.154 94.8011 111.082 96.0205Z" fill="white"/>
</svg>
